<?xml version="1.0" encoding="UTF-8" standalone="no"?>
<!-- Created with Inkscape (http://www.inkscape.org/) -->

<svg
   xmlns:dc="http://purl.org/dc/elements/1.1/"
   xmlns:cc="http://creativecommons.org/ns#"
   xmlns:rdf="http://www.w3.org/1999/02/22-rdf-syntax-ns#"
   xmlns:svg="http://www.w3.org/2000/svg"
   xmlns="http://www.w3.org/2000/svg"
   xmlns:sodipodi="http://sodipodi.sourceforge.net/DTD/sodipodi-0.dtd"
   xmlns:inkscape="http://www.inkscape.org/namespaces/inkscape"
   width="11in"
   height="8.5in"
   viewBox="0 0 990 765"
   id="svg2"
   version="1.1"
   inkscape:version="0.91 r13725"
   sodipodi:docname="learning.svg">
  <defs
     id="defs4" />
  <sodipodi:namedview
     id="base"
     pagecolor="#ffffff"
     bordercolor="#666666"
     borderopacity="1.0"
     inkscape:pageopacity="0.0"
     inkscape:pageshadow="2"
     inkscape:zoom="0.4665165"
     inkscape:cx="256.32462"
     inkscape:cy="-3055.0773"
     inkscape:document-units="px"
     inkscape:current-layer="layer1"
     showgrid="false"
     units="in"
     showborder="false"
     inkscape:showpageshadow="false"
     inkscape:object-paths="false"
     inkscape:window-width="1951"
     inkscape:window-height="1209"
     inkscape:window-x="86"
     inkscape:window-y="60"
     inkscape:window-maximized="0"
     inkscape:snap-smooth-nodes="false"
     inkscape:snap-midpoints="false"
     inkscape:snap-intersection-paths="false" />
  <metadata
     id="metadata7">
    <rdf:RDF>
      <cc:Work
         rdf:about="">
        <dc:format>image/svg+xml</dc:format>
        <dc:type
           rdf:resource="http://purl.org/dc/dcmitype/StillImage" />
        <dc:title />
      </cc:Work>
    </rdf:RDF>
  </metadata>
  <g
     inkscape:label="Layer 1"
     inkscape:groupmode="layer"
     id="layer1"
     transform="translate(0,-287.3622)">
    <flowRoot
       xml:space="preserve"
       id="flowRoot4136"
       style="font-style:normal;font-weight:normal;font-size:40px;line-height:125%;font-family:sans-serif;letter-spacing:0px;word-spacing:0px;fill:#000000;fill-opacity:1;stroke:none;stroke-width:1px;stroke-linecap:butt;stroke-linejoin:miter;stroke-opacity:1"
       transform="translate(0,287.3622)"><flowRegion
         id="flowRegion4138"><rect
           id="rect4140"
           width="14"
           height="83"
           x="325"
           y="289" /></flowRegion><flowPara
         id="flowPara4142">360</flowPara></flowRoot>    <path
       style="font-style:normal;font-variant:normal;font-weight:normal;font-stretch:normal;font-size:medium;line-height:125%;font-family:'Sansita One';-inkscape-font-specification:'Sansita One';letter-spacing:0px;word-spacing:0px;fill:#00b4ff;fill-opacity:1;stroke:none;stroke-width:1px;stroke-linecap:butt;stroke-linejoin:miter;stroke-opacity:1;opacity:1"
       d="M 583.00195 251.7207 L 451 252.35352 C 450.99473 252.35351 450.98963 252.35352 450.98438 252.35352 C 429.62745 252.35352 411.01926 256.79469 395.16016 265.67578 C 387.75924 269.90487 381.94393 274.8747 377.71484 280.58398 C 373.48575 286.0818 371.37109 291.79021 371.37109 297.71094 C 371.37109 303.63166 372.21852 308.07284 373.91016 311.0332 C 375.6018 313.78212 378.45502 315.68492 382.47266 316.74219 C 394.94848 303.63201 408.27004 297.07617 422.4375 297.07617 C 430.47277 297.07617 436.60489 298.76907 440.83398 302.15234 C 445.06308 305.53562 447.17773 310.2936 447.17773 316.42578 C 447.17773 331.65051 431.74151 341.80009 400.86914 346.875 L 395.47852 375.42188 C 421.27598 375.42188 434.17383 384.83093 434.17383 403.65039 C 434.17383 413.58876 431.1068 421.09501 424.97461 426.16992 C 418.84243 431.24483 410.91441 433.7832 401.1875 433.7832 C 391.67204 433.7832 383.10651 431.98535 375.49414 428.39062 C 368.09323 424.79591 362.27987 419.08554 358.05078 411.26172 C 349.80405 418.02827 345.67969 426.91061 345.67969 437.90625 C 345.67969 448.90189 350.86138 457.78228 361.22266 464.54883 C 371.58393 471.10392 385.43416 474.38086 402.77344 474.38086 C 431.95417 474.38086 455.42531 467.61513 473.1875 454.08203 C 476.1409 451.80156 478.83243 449.41394 481.26367 446.92188 C 472.60605 433.86007 468.26953 417.11395 468.26953 396.67188 C 468.26953 379.96696 471.12471 363.05165 476.83398 345.92383 C 482.54326 328.79601 490.57818 313.25288 500.93945 299.29688 C 511.30073 285.34087 523.56496 273.92211 537.73242 265.04102 C 551.87452 256.17581 566.96551 251.73852 583.00391 251.72266 L 583.00195 251.7207 z M 702.9043 252.35352 C 675.39149 252.35352 652.46339 260.44358 634.11328 276.61328 C 634.34499 277.99075 634.47266 279.41515 634.47266 280.90039 C 634.47266 291.05021 630.66705 299.08513 623.05469 305.00586 C 616.71105 296.75913 606.0328 292.63672 591.01953 292.63672 C 571.35425 292.63672 556.12794 299.50936 545.34375 313.25391 C 537.73138 322.76937 532.23484 336.09092 528.85156 353.21875 C 534.34938 344.1262 540.69335 337.25356 547.88281 332.60156 C 555.28372 327.73811 564.05916 325.30664 574.20898 325.30664 C 584.3588 325.30664 592.60558 327.10449 598.94922 330.69922 C 605.50431 334.29395 610.78901 339.04997 614.80664 344.9707 C 622.41901 355.96634 626.22656 369.28791 626.22656 384.93555 C 626.22656 400.58319 623.37138 413.90475 617.66211 424.90039 C 612.16429 435.89603 605.0798 445.09519 596.41016 452.49609 C 587.74052 459.89701 578.01466 465.39551 567.23047 468.99023 C 559.26797 471.85674 551.42576 473.63996 543.70312 474.34766 L 655 474.69922 L 655.00977 474.69922 C 687.36232 474.69922 713.26492 461.48261 732.71875 435.05078 C 742.02275 422.3635 749.2122 407.13914 754.28711 389.37695 C 759.57348 371.40331 762.2168 350.99726 762.2168 328.16016 C 762.2168 305.11161 756.93016 286.71526 746.35742 272.9707 C 735.7847 259.22616 721.30085 252.35352 702.9043 252.35352 z M 693.70508 280.90039 C 698.56854 280.90039 701.84743 283.54371 703.53906 288.83008 C 705.44216 293.90498 706.39258 302.15176 706.39258 313.57031 C 706.39258 347.40305 701.42274 377.95868 691.48438 405.23633 C 686.83237 417.71215 681.54769 427.64987 675.62695 435.05078 C 669.91768 442.45169 663.8905 446.15234 657.54688 446.15234 C 650.56886 446.15234 647.08008 435.47411 647.08008 414.11719 C 647.08008 384.09063 652.36672 354.38047 662.93945 324.98828 C 667.59145 312.08955 672.66624 301.51822 678.16406 293.27148 C 683.87334 285.02476 689.05308 280.90039 693.70508 280.90039 z M 553.9082 359.5625 C 549.46766 359.5625 545.4502 360.82973 541.85547 363.36719 C 538.4722 365.90464 535.30021 369.39539 532.33984 373.83594 C 529.59094 378.27648 527.37133 383.45623 525.67969 389.37695 C 523.98805 395.29769 523.14258 402.48713 523.14258 410.94531 C 523.14258 419.19205 524.93848 426.06468 528.5332 431.5625 C 532.33939 436.84887 537.20427 439.49219 543.125 439.49219 C 549.04573 439.49219 553.6968 437.48248 557.08008 433.46484 C 560.67481 429.23575 563.42309 424.26787 565.32617 418.55859 C 568.70945 408.40877 570.40234 398.68096 570.40234 389.37695 C 570.40234 380.07295 568.70945 372.77855 565.32617 367.49219 C 562.15435 362.20582 558.34875 359.5625 553.9082 359.5625 z M 527.95703 474.28125 L 527.9707 474.29883 L 528.125 474.29883 C 528.0687 474.29328 528.01327 474.28691 527.95703 474.28125 z "
       id="path4149"
       transform="translate(0,287.3622)" />
    <rect
       style="opacity:1;fill:#00b4ff;fill-opacity:1"
       id="rect4167"
       width="593"
       height="857.52521"
       x="803"
       y="422.36221" />
    <path
       id="path4173"
       d="M 1147.0019,526.0829 1015,526.71572 c -0,-1e-5 -0.01,0 -0.016,0 -21.35693,0 -39.96512,4.44117 -55.82422,13.32226 -7.40092,4.22909 -13.21623,9.19892 -17.44532,14.9082 -4.22909,5.49782 -6.34375,11.20623 -6.34375,17.12696 0,5.92072 0.84743,10.3619 2.53907,13.32226 1.69164,2.74892 4.54486,4.65172 8.5625,5.70899 12.47582,-13.11018 25.79738,-19.66602 39.96484,-19.66602 8.03527,0 14.16738,1.6929 18.39648,5.07617 4.2291,3.38328 6.3438,8.14126 6.3438,14.27344 0,15.22473 -15.43627,25.37431 -46.30864,30.44922 l -5.39062,28.54688 c 25.79746,0 38.69531,9.40905 38.69531,28.22851 0,9.93837 -3.06703,17.44462 -9.19922,22.51953 -6.13218,5.07491 -14.0602,7.61328 -23.78711,7.61328 -9.51546,0 -18.08099,-1.79785 -25.69336,-5.39258 -7.40091,-3.59471 -13.21427,-9.30508 -17.44336,-17.1289 -8.24673,6.76655 -12.37109,15.64889 -12.37109,26.64453 0,10.99564 5.18169,19.87603 15.54297,26.64258 10.36127,6.55509 24.2115,9.83203 41.55078,9.83203 29.18073,0 52.65184,-6.76573 70.41404,-20.29883 2.9534,-2.28047 5.645,-4.66809 8.0762,-7.16015 -8.6576,-13.06181 -12.9941,-29.80793 -12.9941,-50.25 0,-16.70492 2.8551,-33.62023 8.5644,-50.74805 5.7093,-17.12782 13.7442,-32.67095 24.1055,-46.62695 10.3613,-13.95601 22.6255,-25.37477 36.7929,-34.25586 14.1421,-8.86521 29.2331,-13.3025 45.2715,-13.31836 l -0,-0.002 z m 119.9024,0.63282 c -27.5128,0 -50.4409,8.09006 -68.791,24.25976 0.2317,1.37747 0.3594,2.80187 0.3594,4.28711 0,10.14982 -3.8056,18.18474 -11.418,24.10547 -6.3437,-8.24673 -17.0219,-12.36914 -32.0352,-12.36914 -19.6653,0 -34.8916,6.87264 -45.6757,20.61719 -7.6124,9.51546 -13.109,22.83701 -16.4922,39.96484 5.4978,-9.09255 11.8417,-15.96519 19.0312,-20.61719 7.4009,-4.86345 16.1764,-7.29492 26.3262,-7.29492 10.1498,0 18.3966,1.79785 24.7402,5.39258 6.5551,3.59473 11.8398,8.35075 15.8574,14.27148 7.6124,10.99564 11.42,24.31721 11.42,39.96485 0,15.64764 -2.8552,28.9692 -8.5645,39.96484 -5.4978,10.99564 -12.5823,20.1948 -21.2519,27.5957 -8.6697,7.40092 -18.3955,12.89942 -29.1797,16.49414 -7.9625,2.86651 -15.8047,4.64973 -23.5274,5.35743 l 111.2969,0.35156 0.01,0 c 32.3525,0 58.2551,-13.21661 77.709,-39.64844 9.304,-12.68728 16.4934,-27.91164 21.5683,-45.67383 5.2864,-17.97364 7.9297,-38.37969 7.9297,-61.21679 0,-23.04855 -5.2866,-41.4449 -15.8594,-55.18946 -10.5727,-13.74454 -25.0565,-20.61718 -43.4531,-20.61718 z m -9.1992,28.54687 c 4.8634,0 8.1423,2.64332 9.834,7.92969 1.9031,5.0749 2.8535,13.32168 2.8535,24.74023 0,33.83274 -4.9699,64.38837 -14.9082,91.66602 -4.652,12.47582 -9.9367,22.41354 -15.8575,29.81445 -5.7092,7.40091 -11.7364,11.10156 -18.08,11.10156 -6.978,0 -10.4668,-10.67823 -10.4668,-32.03515 0,-30.02656 5.2866,-59.73672 15.8593,-89.12891 4.652,-12.89873 9.7268,-23.47006 15.2247,-31.7168 5.7092,-8.24672 10.889,-12.37109 15.541,-12.37109 z m -139.7969,78.66211 c -4.4405,0 -8.458,1.26723 -12.0527,3.80469 -3.3833,2.53745 -6.5553,6.0282 -9.5157,10.46875 -2.7489,4.44054 -4.9685,9.62029 -6.6601,15.54101 -1.6916,5.92074 -2.5371,13.11018 -2.5371,21.56836 0,8.24674 1.7959,15.11937 5.3906,20.61719 3.8062,5.28637 8.6711,7.92969 14.5918,7.92969 5.9207,0 10.5718,-2.00971 13.9551,-6.02735 3.5947,-4.22909 6.343,-9.19697 8.2461,-14.90625 3.3832,-10.14982 5.0761,-19.87763 5.0761,-29.18164 0,-9.304 -1.6929,-16.5984 -5.0761,-21.88476 -3.1719,-5.28637 -6.9775,-7.92969 -11.418,-7.92969 z m -25.9512,114.71875 0.014,0.0176 0.1543,0 c -0.056,-0.006 -0.1117,-0.0119 -0.1679,-0.0176 z"
       style="font-style:normal;font-variant:normal;font-weight:normal;font-stretch:normal;font-size:medium;line-height:125%;font-family:'Sansita One';-inkscape-font-specification:'Sansita One';letter-spacing:0px;word-spacing:0px;opacity:1;fill:#ffffff;fill-opacity:1;stroke:none;stroke-width:1px;stroke-linecap:butt;stroke-linejoin:miter;stroke-opacity:1"
       inkscape:connector-curvature="0" />
    <path
       style="font-style:normal;font-variant:normal;font-weight:normal;font-stretch:normal;font-size:medium;line-height:125%;font-family:'Sansita One';-inkscape-font-specification:'Sansita One';letter-spacing:0px;word-spacing:0px;opacity:1;fill:#000000;fill-opacity:1;stroke:none;stroke-width:1px;stroke-linecap:butt;stroke-linejoin:miter;stroke-opacity:1"
       d="M 598.73047 651.16211 L 598.37109 651.23438 C 598.49972 651.20994 598.62963 651.18723 598.75977 651.16406 L 598.73047 651.16211 z M 597.57031 651.39648 L 583.66016 654.21484 L 583.65039 654.30078 L 568.47461 655.8418 L 554.31445 729.03516 C 553.78262 731.96026 552.91732 734.5522 551.7207 736.8125 C 547.99787 743.8593 543.54475 747.38281 538.35938 747.38281 C 533.70583 747.38281 531.37891 743.52605 531.37891 735.81445 C 531.37891 734.08595 531.64395 731.76104 532.17578 728.83594 L 546.73633 651.85156 L 506.25 655.8418 L 506.18945 656.16211 C 509.47023 657.14821 512.30387 658.37472 514.66602 659.85547 C 521.73721 664.28816 525.27148 670.99002 525.27148 679.96094 C 525.27148 688.82632 522.95041 696.05676 518.30664 701.65039 C 513.76841 707.24402 507.54052 710.93824 499.625 712.73242 C 501.41918 721.49226 504.37417 729.40732 508.49023 736.47852 C 512.28968 743.12755 516.40715 747.50638 520.83984 749.61719 C 519.25674 754.04988 516.82839 757.21746 513.55664 759.11719 C 513.0569 759.43369 512.53264 759.71588 511.99609 759.98242 C 515.29667 761.01435 518.82881 761.54297 522.60352 761.54297 C 538.42554 761.54297 549.52818 757.42113 555.91016 749.17773 C 556.97383 752.90053 559.36702 755.89194 563.08984 758.15234 C 566.81267 760.41254 571.79781 761.54297 578.04688 761.54297 C 583.89866 761.54297 589.52315 759.6191 594.92773 755.81836 C 592.81976 755.5701 590.6023 755.43164 588.24609 755.43164 C 584.52323 755.43164 580.80096 756.09618 577.07812 757.42578 C 575.08376 756.22918 573.42138 754.43428 572.0918 752.04102 C 570.89518 749.64775 570.29688 746.58999 570.29688 742.86719 C 570.29688 735.02265 574.28615 728.10813 582.26367 722.125 L 632.91992 685.62891 C 623.47993 682.96974 614.43919 681.63867 605.79688 681.63867 C 597.28756 681.63867 591.5053 684.5639 588.44727 690.41406 C 583.92672 685.09574 581.66602 678.24941 581.66602 669.87305 C 581.66602 664.28881 583.65972 659.7012 587.64844 656.11133 C 590.14758 653.85405 593.45811 652.2851 597.57031 651.39648 z M 431.12695 651.85156 C 429.05753 651.85156 427.04879 651.92356 425.07227 652.03711 L 424.96289 652.02734 L 424.98438 652.04297 C 406.93846 653.09573 392.75617 658.87161 382.46484 669.40234 C 370.63156 681.36854 364.71484 697.78959 364.71484 718.66406 C 364.71484 747.25006 378.21067 761.54297 405.20117 761.54297 C 413.10887 761.54297 420.15024 760.67663 426.33984 758.95898 L 423.32031 758.95898 L 427.83398 734.65234 C 424.82311 735.82378 421.6668 736.41406 418.36328 736.41406 C 412.77904 736.41406 408.72347 734.95049 406.19727 732.02539 C 403.67106 728.96729 402.4082 724.1147 402.4082 717.4668 C 402.4082 705.36763 405.20092 693.33534 410.78516 681.36914 C 413.31137 676.18374 416.03781 671.92937 418.96289 668.60547 C 422.02093 665.28147 424.87795 663.61914 427.53711 663.61914 C 431.3929 663.61914 433.32227 666.41189 433.32227 671.99609 C 433.32227 673.19269 433.05527 675.98349 432.52344 680.37109 C 432.12457 684.62579 431.19496 688.48255 429.73242 691.93945 C 431.22627 692.68637 433.16946 693.11804 435.51953 693.26562 L 442.63477 654.94922 C 444.95112 654.69185 447.40337 654.46789 449.95312 654.26758 L 448.4668 654.31836 L 448.44141 654.31641 C 443.80405 652.67613 438.03748 651.85156 431.12695 651.85156 z M 683.55469 652.50586 L 664.12891 654.41992 C 666.85235 657.37163 668.2207 660.79305 668.2207 664.6875 C 668.2207 671.60133 663.96635 678.64839 655.45703 685.82812 L 605 723.52148 C 615.3707 726.57948 623.21488 728.10742 628.5332 728.10742 C 639.70169 728.10742 647.67835 725.44919 652.46484 720.13086 C 656.1877 724.38553 658.05078 730.23597 658.05078 737.68164 C 658.05078 740.76629 657.61924 743.57472 656.76758 746.11523 C 658.67217 746.3265 660.67948 746.44141 662.8125 746.44141 C 675.44353 746.44141 685.21704 742.85167 692.13086 735.67188 C 690.80128 742.05388 689.4059 748.23562 687.94336 754.21875 C 682.89098 774.42842 675.97644 784.5332 667.20117 784.5332 C 661.88285 784.5332 659.22266 781.60801 659.22266 775.75781 C 659.22266 771.37021 660.75247 767.84663 663.81055 765.1875 C 662.61392 763.32603 660.75277 761.66567 658.22656 760.20312 C 655.23744 758.52179 651.91276 757.44349 648.26758 756.94336 C 643.7493 759.78719 637.9052 761.21484 630.72656 761.21484 C 629.76862 761.21484 628.78738 761.18572 627.79492 761.14258 C 627.76813 761.16223 627.73958 761.17942 627.71289 761.19922 C 623.59116 764.39022 621.5293 768.71084 621.5293 774.16211 C 621.5293 781.47484 625.51861 787.32529 633.49609 791.71289 C 641.47361 796.10049 652.44177 798.29492 666.40234 798.29492 C 675.04462 798.29492 682.68998 797.23085 689.33789 795.10352 C 696.11876 793.10918 702.10174 789.51938 707.28711 784.33398 C 717.39196 774.22918 724.9048 756.4127 729.82422 730.88477 L 744.78125 652.50586 L 705.49219 656.49414 L 694.52344 711.73828 C 693.32681 717.72143 691.46566 722.44157 688.93945 725.89844 C 686.54624 729.35537 683.88796 731.08398 680.96289 731.08398 C 678.17073 731.08398 675.97635 730.55195 674.38086 729.48828 C 673.45015 728.69055 672.65304 727.69471 671.98828 726.49805 C 671.32349 725.16851 670.99023 723.5724 670.99023 721.71094 C 670.99023 719.7166 671.18905 717.78913 671.58789 715.92773 C 671.9868 714.06627 672.32002 712.2714 672.58594 710.54297 L 683.55469 652.50586 z M 481.80078 653.17969 L 480.98242 653.20703 L 481.10352 653.20703 C 481.47444 653.20703 481.83118 653.21419 482.19727 653.2168 L 481.80078 653.17969 z M 658.75781 654.94922 L 653.12695 655.50391 C 653.3054 655.50532 653.48367 655.51367 653.66211 655.51367 C 655.48059 655.51367 657.17814 655.32451 658.75781 654.94922 z M 477.62109 663.02148 C 476.67123 663.02148 475.932 663.0761 475.4043 663.18164 L 457.19922 758.95898 L 456.9082 758.95898 L 497.97461 761.76953 C 494.96512 761.22246 492.18767 760.03022 489.65234 758.16602 C 486.06398 755.42197 482.84568 751.56975 479.99609 746.60938 C 473.9803 735.84427 470.65473 721.96659 470.02148 704.97461 L 471.12891 704.97461 C 478.93888 704.76353 484.79816 702.65311 488.70312 698.64258 C 492.60811 694.52651 494.56055 688.19329 494.56055 679.64453 C 494.56055 668.98497 490.07444 663.44365 481.10352 663.02148 L 477.62109 663.02148 z "
       transform="translate(0,287.3622)"
       id="path4224" />
    <path
       id="path4285"
       d="m 1177.4074,969.18924 -0.3594,0.0723 c 0.1286,-0.0244 0.2586,-0.0471 0.3887,-0.0703 l -0.029,-0.002 z m -1.1602,0.23437 -13.9101,2.81836 -0.01,0.0859 -15.1758,1.54102 -14.1601,73.19331 c -0.5319,2.9251 -1.3972,5.517 -2.5938,7.7773 -3.7228,7.0468 -8.1759,10.5704 -13.3613,10.5704 -4.6535,0 -6.9805,-3.8568 -6.9805,-11.5684 0,-1.7285 0.2651,-4.0534 0.7969,-6.9785 l 14.5606,-76.98435 -40.4864,3.99024 -0.061,0.32031 c 3.2808,0.9861 6.1144,2.21261 8.4765,3.69336 7.0712,4.43269 10.6055,11.13455 10.6055,20.10549 0,8.86535 -2.3211,16.09575 -6.9648,21.68935 -4.5383,5.5937 -10.7662,9.2879 -18.6817,11.0821 1.7942,8.7598 4.7492,16.6749 8.8653,23.7461 3.7994,6.649 7.9169,11.0278 12.3496,13.1386 -1.5831,4.4327 -4.0115,7.6003 -7.2832,9.5 -0.4998,0.3165 -1.024,0.5987 -1.5606,0.8653 3.3006,1.0319 6.8327,1.5605 10.6074,1.5605 15.8221,0 26.9247,-4.1218 33.3067,-12.3652 1.0637,3.7228 3.4568,6.7142 7.1797,8.9746 3.7228,2.2602 8.7079,3.3906 14.957,3.3906 5.8518,0 11.4763,-1.9239 16.8809,-5.7246 -2.108,-0.2483 -4.3255,-0.3867 -6.6817,-0.3867 -3.7228,0 -7.4451,0.6645 -11.168,1.9941 -1.9943,-1.1966 -3.6567,-2.9915 -4.9863,-5.3847 -1.1966,-2.3933 -1.7949,-5.4511 -1.7949,-9.1739 0,-7.8445 3.9893,-14.759 11.9668,-20.7422 l 50.6562,-36.496 c -9.4399,-2.6592 -18.4807,-3.99025 -27.123,-3.99025 -8.5093,0 -14.2916,2.92515 -17.3496,8.77535 -4.5206,-5.3183 -6.7813,-12.16455 -6.7813,-20.54096 0,-5.58424 1.9937,-10.17185 5.9825,-13.76172 2.4991,-2.25728 5.8096,-3.82623 9.9218,-4.71485 z m -166.4434,0.45508 c -2.0694,0 -4.0781,0.072 -6.0546,0.18555 l -0.1094,-0.01 0.021,0.0156 c -18.04594,1.05276 -32.22823,6.82864 -42.51956,17.35937 -11.83328,11.96622 -17.75,28.38719 -17.75,49.26169 0,28.586 13.49583,42.8789 40.48633,42.8789 7.9077,0 14.94907,-0.8663 21.13863,-2.584 l -3.0195,0 4.5137,-24.3066 c -3.0109,1.1714 -6.1672,1.7617 -9.47072,1.7617 -5.58424,0 -9.63981,-1.4636 -12.16601,-4.3887 -2.52621,-3.0581 -3.78907,-7.9107 -3.78907,-14.5586 0,-12.0991 2.79272,-24.1314 8.37696,-36.09757 2.52621,-5.1854 5.25265,-9.43979 8.17773,-12.76369 3.05801,-3.324 5.91501,-4.98633 8.57421,-4.98633 3.8558,0 5.7852,2.79275 5.7852,8.37695 0,1.19657 -0.267,3.98737 -0.7989,8.37497 -0.3988,4.25467 -1.3284,8.11147 -2.791,11.56837 1.4939,0.7469 3.4371,1.1786 5.7871,1.3262 l 7.1153,-38.31641 c 2.3163,-0.25737 4.7686,-0.48133 7.3183,-0.68164 l -1.4863,0.0508 -0.025,-0.002 c -4.6374,-1.64028 -10.4039,-2.46485 -17.3145,-2.46485 z m 252.4278,0.6543 -19.4258,1.91406 c 2.7235,2.95171 4.0918,6.37313 4.0918,10.26758 0,6.91383 -4.2543,13.96086 -12.7636,21.14067 l -50.4571,37.6933 c 10.3707,3.058 18.2149,4.586 23.5332,4.586 11.1685,0 19.1452,-2.6583 23.9317,-7.9766 3.7228,4.2547 5.5859,10.1051 5.5859,17.5508 0,3.0846 -0.4315,5.8931 -1.2832,8.4336 1.9046,0.2112 3.9119,0.3262 6.0449,0.3262 12.6311,0 22.4046,-3.5898 29.3184,-10.7696 -1.3296,6.382 -2.725,12.5638 -4.1875,18.5469 -5.0524,20.2097 -11.9669,30.3144 -20.7422,30.3144 -5.3183,0 -7.9785,-2.9251 -7.9785,-8.7753 0,-4.3876 1.5298,-7.9112 4.5879,-10.5704 -1.1967,-1.8614 -3.0578,-3.5218 -5.584,-4.9843 -2.9891,-1.6814 -6.3138,-2.7597 -9.959,-3.2598 -4.5183,2.8438 -10.3624,4.2715 -17.541,4.2715 -0.958,0 -1.9392,-0.029 -2.9317,-0.072 -0.027,0.02 -0.055,0.037 -0.082,0.057 -4.1217,3.191 -6.1836,7.5116 -6.1836,12.9629 0,7.3127 3.9893,13.1631 11.9668,17.5507 7.9775,4.3876 18.9457,6.5821 32.9063,6.5821 8.6422,0 16.2876,-1.0641 22.9355,-3.1914 6.7809,-1.9944 12.7639,-5.5842 17.9492,-10.7696 10.1049,-10.1048 17.6177,-27.9213 22.5371,-53.4492 l 14.9571,-78.37891 -39.2891,3.98828 -10.9687,55.24413 c -1.1967,5.9832 -3.0578,10.7033 -5.584,14.1602 -2.3932,3.4569 -5.0515,5.1855 -7.9766,5.1855 -2.7921,0 -4.9865,-0.532 -6.582,-1.5957 -0.9307,-0.7977 -1.7278,-1.7935 -2.3926,-2.9902 -0.6648,-1.3295 -0.998,-2.9257 -0.998,-4.7871 0,-1.9944 0.1988,-3.9218 0.5976,-5.7832 0.3989,-1.8615 0.7321,-3.6564 0.9981,-5.3848 l 10.9687,-58.03711 z m -201.7539,0.67383 -0.8184,0.0273 0.1211,0 c 0.371,0 0.7277,0.007 1.0938,0.01 l -0.3965,-0.0371 z m 176.957,1.76953 -5.6308,0.55469 c 0.1784,0.001 0.3567,0.01 0.5351,0.01 1.8185,0 3.5161,-0.18916 5.0957,-0.56445 z m -181.1367,8.07226 c -0.9498,0 -1.6891,0.0546 -2.2168,0.16016 l -18.2051,95.77733 -0.291,0 41.0664,2.8106 c -3.0095,-0.5471 -5.7869,-1.7393 -8.3222,-3.6035 -3.5884,-2.7441 -6.8067,-6.5963 -9.6563,-11.5567 -6.0158,-10.7651 -9.3413,-24.6428 -9.9746,-41.6347 l 1.1074,0 c 7.81,-0.2111 13.6693,-2.3215 17.5742,-6.3321 3.905,-4.116 5.8575,-10.4493 5.8575,-18.99801 0,-10.65959 -4.4861,-16.20091 -13.4571,-16.62308 l -3.4824,0 z"
       style="font-style:normal;font-variant:normal;font-weight:normal;font-stretch:normal;font-size:medium;line-height:125%;font-family:'Sansita One';-inkscape-font-specification:'Sansita One';letter-spacing:0px;word-spacing:0px;opacity:1;fill:#ffffff;fill-opacity:1;stroke:none;stroke-width:1px;stroke-linecap:butt;stroke-linejoin:miter;stroke-opacity:1"
       inkscape:connector-curvature="0" />
    <rect
       y="1555.0026"
       x="459.67975"
       height="450"
       width="450"
       id="rect4313"
       style="opacity:1;fill:#00b4ff;fill-opacity:1"
       inkscape:export-filename="/Users/michaelcruz/Test/Test/Cruzy-450x"
       inkscape:export-xdpi="90"
       inkscape:export-ydpi="90" />
    <path
       inkscape:connector-curvature="0"
       style="font-style:normal;font-variant:normal;font-weight:normal;font-stretch:normal;font-size:medium;line-height:125%;font-family:'Sansita One';-inkscape-font-specification:'Sansita One';letter-spacing:0px;word-spacing:0px;opacity:1;fill:#ffffff;fill-opacity:1;stroke:none;stroke-width:1px;stroke-linecap:butt;stroke-linejoin:miter;stroke-opacity:1"
       d="m 728.66243,1706.4359 -0.3594,0.072 c 0.1286,-0.024 0.2586,-0.047 0.3887,-0.07 l -0.029,0 z m -1.1602,0.2344 -13.9101,2.8183 -0.01,0.086 -15.1758,1.541 -14.1601,73.1933 c -0.5319,2.9251 -1.3972,5.517 -2.5938,7.7773 -3.7228,7.0468 -8.1759,10.5704 -13.3613,10.5704 -4.6535,0 -6.9805,-3.8568 -6.9805,-11.5684 0,-1.7285 0.2651,-4.0534 0.7969,-6.9785 l 14.5606,-76.9844 -40.4864,3.9903 -0.061,0.3203 c 3.2808,0.9861 6.1144,2.2126 8.4765,3.6933 7.0712,4.4327 10.6055,11.1346 10.6055,20.1055 0,8.8654 -2.3211,16.0958 -6.9648,21.6894 -4.5383,5.5937 -10.7662,9.2879 -18.6817,11.0821 1.7942,8.7598 4.7492,16.6749 8.8653,23.7461 3.7994,6.649 7.9169,11.0278 12.3496,13.1386 -1.5831,4.4327 -4.0115,7.6003 -7.2832,9.5 -0.4998,0.3165 -1.024,0.5987 -1.5606,0.8653 3.3006,1.0319 6.8327,1.5605 10.6074,1.5605 15.8221,0 26.9247,-4.1218 33.3067,-12.3652 1.0637,3.7228 3.4568,6.7142 7.1797,8.9746 3.7228,2.2602 8.7079,3.3906 14.957,3.3906 5.8518,0 11.4763,-1.9239 16.8809,-5.7246 -2.108,-0.2483 -4.3255,-0.3867 -6.6817,-0.3867 -3.7228,0 -7.4451,0.6645 -11.168,1.9941 -1.9943,-1.1966 -3.6567,-2.9915 -4.9863,-5.3847 -1.1966,-2.3933 -1.7949,-5.4511 -1.7949,-9.1739 0,-7.8445 3.9893,-14.759 11.9668,-20.7422 l 50.6562,-36.496 c -9.4399,-2.6592 -18.4807,-3.9903 -27.123,-3.9903 -8.5093,0 -14.2916,2.9252 -17.3496,8.7754 -4.5206,-5.3183 -6.7813,-12.1646 -6.7813,-20.541 0,-5.5842 1.9937,-10.1718 5.9825,-13.7617 2.4991,-2.2573 5.8096,-3.8262 9.9218,-4.7149 z m -166.4434,0.4551 c -2.0694,0 -4.0781,0.072 -6.0546,0.1855 l -0.1094,-0.01 0.021,0.016 c -18.04594,1.0528 -32.22823,6.8287 -42.51956,17.3594 -11.83328,11.9662 -17.75,28.3872 -17.75,49.2617 0,28.586 13.49583,42.8789 40.48633,42.8789 7.9077,0 14.94907,-0.8663 21.13863,-2.584 l -3.0195,0 4.5137,-24.3066 c -3.0109,1.1714 -6.1672,1.7617 -9.47072,1.7617 -5.58424,0 -9.63981,-1.4636 -12.16601,-4.3887 -2.52621,-3.0581 -3.78907,-7.9107 -3.78907,-14.5586 0,-12.0991 2.79272,-24.1314 8.37696,-36.0976 2.52621,-5.1854 5.25265,-9.4398 8.17773,-12.7637 3.05801,-3.324 5.91501,-4.9863 8.57421,-4.9863 3.8558,0 5.7852,2.7927 5.7852,8.3769 0,1.1966 -0.267,3.9874 -0.7989,8.375 -0.3988,4.2547 -1.3284,8.1115 -2.791,11.5684 1.4939,0.7469 3.4371,1.1786 5.7871,1.3262 l 7.1153,-38.3164 c 2.3163,-0.2574 4.7686,-0.4814 7.3183,-0.6817 l -1.4863,0.051 -0.025,0 c -4.6374,-1.6403 -10.4039,-2.4648 -17.3145,-2.4648 z m 252.4278,0.6542 -19.4258,1.914 c 2.7235,2.9518 4.0918,6.3732 4.0918,10.2676 0,6.9138 -4.2543,13.9609 -12.7636,21.1407 l -50.4571,37.6933 c 10.3707,3.058 18.2149,4.586 23.5332,4.586 11.1685,0 19.1452,-2.6583 23.9317,-7.9766 3.7228,4.2547 5.5859,10.1051 5.5859,17.5508 0,3.0846 -0.4315,5.8931 -1.2832,8.4336 1.9046,0.2112 3.9119,0.3262 6.0449,0.3262 12.6311,0 22.4046,-3.5898 29.3184,-10.7696 -1.3296,6.382 -2.725,12.5638 -4.1875,18.5469 -5.0524,20.2097 -11.9669,30.3144 -20.7422,30.3144 -5.3183,0 -7.9785,-2.9251 -7.9785,-8.7753 0,-4.3876 1.5298,-7.9112 4.5879,-10.5704 -1.1967,-1.8614 -3.0578,-3.5218 -5.584,-4.9843 -2.9891,-1.6814 -6.3138,-2.7597 -9.959,-3.2598 -4.5183,2.8438 -10.3624,4.2715 -17.541,4.2715 -0.958,0 -1.9392,-0.029 -2.9317,-0.072 -0.027,0.02 -0.055,0.037 -0.082,0.057 -4.1217,3.191 -6.1836,7.5116 -6.1836,12.9629 0,7.3127 3.9893,13.1631 11.9668,17.5507 7.9775,4.3876 18.9457,6.5821 32.9063,6.5821 8.6422,0 16.2876,-1.0641 22.9355,-3.1914 6.7809,-1.9944 12.7639,-5.5842 17.9492,-10.7696 10.1049,-10.1048 17.6177,-27.9213 22.5371,-53.4492 l 14.9571,-78.3789 -39.2891,3.9882 -10.9687,55.2442 c -1.1967,5.9832 -3.0578,10.7033 -5.584,14.1602 -2.3932,3.4569 -5.0515,5.1855 -7.9766,5.1855 -2.7921,0 -4.9865,-0.5319 -6.582,-1.5957 -0.9307,-0.7977 -1.7278,-1.7935 -2.3926,-2.9902 -0.6648,-1.3295 -0.998,-2.9257 -0.998,-4.7871 0,-1.9944 0.1988,-3.9218 0.5976,-5.7832 0.3989,-1.8615 0.7321,-3.6564 0.9981,-5.3848 l 10.9687,-58.0371 z m -201.7539,0.6738 -0.8184,0.027 0.1211,0 c 0.371,0 0.7277,0.01 1.0938,0.01 l -0.3965,-0.037 z m 176.957,1.7696 -5.6308,0.5547 c 0.1784,9e-4 0.3567,0.01 0.5351,0.01 1.8185,0 3.5161,-0.1891 5.0957,-0.5643 z m -181.1367,8.0723 c -0.9498,0 -1.6891,0.055 -2.2168,0.1601 l -18.2051,95.7774 -0.291,0 41.0664,2.8106 c -3.0095,-0.5471 -5.7869,-1.7393 -8.3222,-3.6035 -3.5884,-2.7441 -6.8067,-6.5963 -9.6563,-11.5567 -6.0158,-10.7651 -9.3413,-24.6428 -9.9746,-41.6347 l 1.1074,0 c 7.81,-0.2111 13.6693,-2.3215 17.5742,-6.3322 3.905,-4.116 5.8575,-10.4493 5.8575,-18.998 0,-10.6596 -4.4861,-16.2009 -13.4571,-16.6231 l -3.4824,0 z"
       id="path4315" />
    <rect
       inkscape:export-ydpi="90"
       inkscape:export-xdpi="90"
       inkscape:export-filename="/Users/michaelcruz/Test/Test/Cruzy-450x"
       style="opacity:1;fill:#00b4ff;fill-opacity:1"
       id="rect4144"
       width="1280"
       height="768"
       x="21.226963"
       y="2042.4567" />
    <path
       id="path4146"
       d="m 759.33159,2262.3641 -0.80166,0.1606 c 0.28685,-0.053 0.57682,-0.1048 0.86701,-0.1561 l -0.0647,0 z m -2.58786,0.5228 -31.02687,6.2863 -0.0223,0.1919 -33.85005,3.4372 -31.58449,163.2597 c -1.18642,6.5245 -3.1165,12.3058 -5.78555,17.3475 -8.30381,15.7181 -18.23657,23.5775 -29.80275,23.5775 -10.37976,0 -15.5702,-8.6027 -15.5702,-25.8036 0,-3.8555 0.59131,-9.0412 1.77751,-15.5657 l 32.47782,-171.7159 -90.30604,8.9005 -0.13606,0.7144 c 7.31791,2.1996 13.63834,4.9353 18.90707,8.238 15.77251,9.8873 23.65586,24.8361 23.65586,44.8459 0,19.7745 -5.17728,35.9022 -15.53518,48.3788 -10.1228,12.4769 -24.01431,20.717 -41.67005,24.719 4.00201,19.5389 10.59322,37.1938 19.7743,52.9663 8.47467,14.8308 17.65886,24.5978 27.54612,29.306 -3.53114,9.8873 -8.94776,16.9527 -16.24538,21.19 -1.11481,0.706 -2.28406,1.3354 -3.48096,1.9301 7.36208,2.3017 15.24053,3.4807 23.6601,3.4807 35.29164,0 60.0563,-9.1937 74.29152,-27.5809 2.37262,8.3038 7.71049,14.9762 16.01452,20.0181 8.30381,5.0415 19.42322,7.5628 33.36201,7.5628 13.0526,0 25.59821,-4.2913 37.65332,-12.7688 -4.70196,-0.5539 -9.64815,-0.8626 -14.90372,-0.8626 -8.30381,0 -16.6065,1.4822 -24.91054,4.4479 -4.44834,-2.669 -8.15637,-6.6726 -11.12208,-12.0107 -2.66905,-5.3383 -4.00357,-12.1588 -4.00357,-20.4626 0,-17.4974 8.89824,-32.9204 26.69228,-46.2661 l 112.99006,-81.4053 c -21.05596,-5.9315 -41.22171,-8.9005 -60.4986,-8.9005 -18.98023,0 -31.87782,6.5247 -38.69877,19.5738 -10.08332,-11.8627 -15.12588,-27.1335 -15.12588,-45.8173 0,-12.4557 4.44701,-22.6885 13.34414,-30.6959 5.57431,-5.0349 12.95847,-8.5344 22.13085,-10.5167 z m -371.25664,1.0151 c -4.61585,0 -9.09631,0.1606 -13.50495,0.4138 l -0.24402,-0.022 0.0468,0.036 c -40.25197,2.3483 -71.88596,15.2316 -94.84106,38.7206 -26.39446,26.691 -39.59187,63.3185 -39.59187,109.8796 0,63.7619 30.10282,95.6426 90.30589,95.6426 17.63834,0 33.34431,-1.9323 47.1503,-5.7637 l -6.73508,0 10.06793,-54.2165 c -6.71589,2.6128 -13.75611,3.9295 -21.1247,3.9295 -12.4558,0 -21.50187,-3.2646 -27.13663,-9.7891 -5.63478,-6.8212 -8.45162,-17.6451 -8.45162,-32.4734 0,-26.9874 6.22924,-53.8258 18.68504,-80.5167 5.63478,-11.5662 11.71618,-21.0557 18.24065,-28.4698 6.82098,-7.4143 13.1936,-11.1221 19.12502,-11.1221 8.60047,0 12.90405,6.2292 12.90405,18.6849 0,2.6691 -0.59555,8.894 -1.78197,18.6807 -0.88953,9.4902 -2.96303,18.0929 -6.2254,25.8036 3.33218,1.666 7.66654,2.6289 12.90828,2.9582 l 15.87088,-85.4658 c 5.16657,-0.5742 10.63649,-1.0738 16.32367,-1.5206 l -3.31523,0.1138 -0.0558,0 c -10.34385,-3.6588 -23.20618,-5.4978 -38.62047,-5.4978 z m 563.04723,1.4593 -43.32978,4.2692 c 6.07484,6.5841 9.12687,14.2156 9.12687,22.9022 0,15.4214 -9.48933,31.1401 -28.46956,47.1549 l -112.54597,84.0759 c 23.13213,6.821 40.62884,10.2292 52.49146,10.2292 24.91165,0 42.7039,-5.9294 53.38032,-17.792 8.30381,9.4902 12.45951,22.5397 12.45951,39.1476 0,6.8802 -0.96248,13.1447 -2.86222,18.8113 4.24827,0.4711 8.7256,0.7276 13.48332,0.7276 28.17402,0 49.97408,-8.0071 65.39551,-24.0219 -2.96571,14.2353 -6.07819,28.0239 -9.34034,41.3694 -11.26952,45.0783 -26.6925,67.6171 -46.26605,67.6171 -11.86262,0 -17.79627,-6.5245 -17.79627,-19.5735 0,-9.7867 3.41226,-17.6462 10.23344,-23.5776 -2.66927,-4.1519 -6.82051,-7.8555 -12.45527,-11.1176 -6.66727,-3.7504 -14.0831,-6.1556 -22.21382,-7.2711 -10.0782,6.3432 -23.11363,9.5277 -39.12569,9.5277 -2.13685,0 -4.32544,-0.065 -6.53924,-0.1606 -0.0602,0.045 -0.12268,0.082 -0.1829,0.1272 -9.19357,7.1176 -13.7927,16.7548 -13.7927,28.9141 0,16.3111 8.89825,29.3606 26.69228,39.1473 17.79404,9.7866 42.25891,14.6815 73.39842,14.6815 19.27667,0 36.32995,-2.3735 51.15827,-7.1185 15.12499,-4.4485 28.47024,-12.4557 40.03619,-24.0219 22.5392,-22.539 39.2967,-62.2792 50.2696,-119.2199 l 33.3622,-174.8263 -87.63537,8.8958 -24.46599,123.2237 c -2.66928,13.3457 -6.82051,23.874 -12.45527,31.5847 -5.3381,7.7107 -11.26751,11.5664 -17.79203,11.5664 -6.22785,0 -11.12252,-1.1864 -14.68133,-3.5592 -2.07595,-1.7793 -3.85391,-4.0005 -5.33676,-6.6697 -1.48286,-2.9655 -2.22607,-6.5259 -2.22607,-10.6778 0,-4.4486 0.44343,-8.7477 1.33296,-12.8996 0.88976,-4.1521 1.63297,-8.1557 2.22629,-12.0109 l 24.46599,-129.4534 z m -450.01768,1.5029 -1.82547,0.06 0.27012,0 c 0.82753,0 1.62315,0.022 2.43975,0.022 l -0.8844,-0.082 z m 394.70751,3.9471 -12.55966,1.2373 c 0.39793,0 0.79563,0.022 1.19356,0.022 4.05621,0 7.84276,-0.4218 11.3661,-1.2587 z m -404.03045,18.0055 c -2.11856,0 -3.76758,0.1227 -4.94463,0.3571 l -40.60699,213.6342 -0.64908,0 91.59975,6.2691 c -6.71278,-1.2203 -12.90784,-3.8796 -18.5629,-8.0377 -8.00403,-6.1208 -15.18253,-14.7132 -21.53865,-25.7775 -13.41841,-24.0119 -20.83603,-54.9665 -22.24862,-92.8674 l 2.47009,0 c 17.42042,-0.4709 30.48975,-5.1782 39.19974,-14.1241 8.71021,-9.1809 13.06532,-23.3075 13.06532,-42.3756 0,-23.7765 -10.00638,-36.1366 -30.01644,-37.0783 l -7.76759,0 z"
       style="font-style:normal;font-variant:normal;font-weight:normal;font-stretch:normal;font-size:medium;line-height:125%;font-family:'Sansita One';-inkscape-font-specification:'Sansita One';letter-spacing:0px;word-spacing:0px;opacity:1;fill:#ffffff;fill-opacity:1;stroke:none;stroke-width:1px;stroke-linecap:butt;stroke-linejoin:miter;stroke-opacity:1"
       inkscape:connector-curvature="0" />
    <g
       id="g4176"
       inkscape:export-xdpi="90"
       inkscape:export-ydpi="90">
      <rect
         inkscape:export-ydpi="90"
         inkscape:export-xdpi="90"
         inkscape:export-filename="/Users/michaelcruz/Test/Test/Cruzy-450x"
         style="opacity:1;fill:#00b4ff;fill-opacity:1"
         id="rect4172"
         width="1920"
         height="720"
         x="-524.40314"
         y="2921.8931" />
      <path
         id="path4174"
         d="m 582.93746,3035.4472 -1.204,0.2412 c 0.43082,-0.079 0.86632,-0.1574 1.30214,-0.2344 l -0.0972,0 z m -3.88663,0.7852 -46.59838,9.4412 -0.0335,0.2883 -50.83843,5.1621 -47.43585,245.1952 c -1.78185,9.7989 -4.68058,18.4816 -8.68916,26.0537 -12.47124,23.6066 -27.38898,35.4103 -44.75989,35.4103 -15.58907,0 -23.38445,-12.9201 -23.38445,-38.7536 0,-5.7905 0.88807,-13.5787 2.6696,-23.3777 l 48.77751,-257.8953 -135.62807,13.3674 -0.20435,1.0729 c 10.99057,3.3036 20.48304,7.4123 28.39599,12.3724 23.68828,14.8495 35.52806,37.3008 35.52806,67.3528 0,29.6989 -7.77561,53.9206 -23.33183,72.6588 -15.20316,18.7387 -36.06642,31.1143 -62.58307,37.1248 6.0105,29.3449 15.90965,55.8603 29.69845,79.5486 12.72787,22.2739 26.52135,36.9427 41.37074,44.0138 -5.30332,14.8494 -13.43838,25.4608 -24.39848,31.8247 -1.6743,1.0603 -3.43036,2.0055 -5.22795,2.8987 11.05691,3.4569 22.88932,5.2276 35.53443,5.2276 53.00351,0 90.19685,-13.8077 111.57633,-41.4229 3.56337,12.4712 11.58016,22.4923 24.05175,30.0645 12.47125,7.5717 29.17118,11.3584 50.10545,11.3584 19.60333,0 38.44523,-6.445 56.55045,-19.1771 -7.06173,-0.8319 -14.49028,-1.2955 -22.38347,-1.2955 -12.47126,0 -24.94084,2.2261 -37.41244,6.6801 -6.68082,-4.0085 -12.24982,-10.0213 -16.70393,-18.0385 -4.00857,-8.0174 -6.01284,-18.2609 -6.01284,-30.7322 0,-26.2788 13.364,-49.4422 40.08837,-69.4857 l 169.69656,-122.2603 c -31.62335,-8.9084 -61.90971,-13.3674 -90.86113,-13.3674 -28.50586,0 -47.87639,9.7992 -58.12058,29.3973 -15.14385,-17.8162 -22.71713,-40.7511 -22.71713,-68.8117 0,-18.7069 6.67883,-34.0752 20.04118,-46.1013 8.37191,-7.5618 19.46196,-12.8175 33.2377,-15.7947 z m -557.579811,1.5245 c -6.93241,0 -13.6614822,0.2413 -20.2826982,0.6215 l -0.36647901,-0.033 0.07027,0.054 c -60.45328879,3.5267 -107.96349179,22.8758 -142.43910179,58.1533 -39.64109,40.0865 -59.46191,95.0963 -59.46191,165.025 0,95.7622 45.21058,143.6429 135.627863,143.6429 26.490527,0 50.078877,-2.9021 70.8137018,-8.6563 l -10.1152329,0 15.1207371,-81.4263 c -10.08639921,3.9242 -20.659907,5.9016 -31.726585,5.9016 -18.707011,0 -32.293049,-4.9029 -40.755731,-14.7019 -8.462716,-10.2445 -12.69325,-26.5007 -12.69325,-48.7709 0,-40.5315 9.355526,-80.8394 28.062537,-120.9257 8.462715,-17.371 17.596197,-31.623 27.395108,-42.758 10.2442409,-11.1353 19.81509079,-16.704 28.7233218,-16.704 12.9168052,0 19.3802252,9.3555 19.3802252,28.0624 0,4.0087 -0.89443,13.3576 -2.67629,28.056 -1.33595,14.253 -4.45009,27.1731 -9.34975,38.7537 5.00451,2.502 11.51416,3.9483 19.38659,4.4428 l 23.83602,-128.3587 c 7.75952,-0.8623 15.97464,-1.6127 24.51605,-2.2837 l -4.97905,0.1709 -0.0838,0 c -15.53513,-5.495 -34.85271,-8.257 -58.00299,-8.257 z m 845.624641,2.1917 -65.07577,6.4118 c 9.12363,9.8885 13.70738,21.35 13.70738,34.3961 0,23.1611 -14.25175,46.7684 -42.75762,70.8206 l -169.02959,126.2713 c 34.74149,10.2442 61.0193,15.3629 78.83544,15.3629 37.41409,0 64.13577,-8.9052 80.17038,-26.7213 12.47126,14.253 18.71258,33.8517 18.71258,58.7947 0,10.3332 -1.44552,19.7417 -4.29868,28.2521 6.38036,0.7076 13.10473,1.0928 20.25021,1.0928 42.31376,0 75.05463,-12.0256 98.21566,-36.0778 -4.45407,21.3796 -9.12861,42.0883 -14.02803,62.1315 -16.92534,67.7018 -40.08867,101.5522 -69.48562,101.5522 -17.81614,0 -26.72772,-9.799 -26.72772,-29.3969 0,-14.6984 5.12478,-26.5023 15.36931,-35.4105 -4.00889,-6.2356 -10.24352,-11.798 -18.70622,-16.6972 -10.01338,-5.6326 -21.151,-9.2449 -33.3623,-10.9203 -15.13616,9.5267 -34.71371,14.3094 -58.76176,14.3094 -3.20927,0 -6.49626,-0.098 -9.8211,-0.2411 -0.0904,0.067 -0.18425,0.123 -0.27468,0.191 -13.80757,10.6897 -20.71488,25.1635 -20.71488,43.4252 0,24.4972 13.36404,44.0958 40.08838,58.7942 26.72437,14.6983 63.46746,22.0497 110.23501,22.0497 28.95107,0 54.56291,-3.5646 76.83316,-10.691 22.71577,-6.6811 42.75856,-18.7068 60.12916,-36.0778 33.851,-33.8507 59.01854,-93.5354 75.49854,-179.053 l 50.1057,-262.5666 -131.61704,13.3603 -36.74482,185.0662 c -4.00892,20.0435 -10.24344,35.8557 -18.7062,47.4361 -8.01707,11.5805 -16.92234,17.3713 -26.72132,17.3713 -9.35343,0 -16.7046,-1.7819 -22.04947,-5.3454 -3.11781,-2.6723 -5.78808,-6.0084 -8.01514,-10.0171 -2.22706,-4.4538 -3.34327,-9.8011 -3.34327,-16.0367 0,-6.6812 0.66598,-13.1379 2.00194,-19.3735 1.3363,-6.2359 2.45251,-12.2489 3.34361,-18.0388 l 36.74477,-194.4224 z m -675.86876,2.2572 -2.74162,0.09 0.40568,0 c 1.24285,0 2.43776,0.033 3.6642,0.033 l -1.32826,-0.1231 z m 592.79999,5.928 -18.863,1.8583 c 0.59764,0 1.19494,0.033 1.79257,0.033 6.09191,0 11.77882,-0.6334 17.07043,-1.8904 z m -606.80185,27.042 c -3.18181,0 -5.65842,0.1842 -7.4262,0.5363 l -60.98648,320.8511 -0.97484,0 137.57106,9.4154 c -10.08174,-1.8327 -19.38592,-5.8267 -27.87909,-12.0716 -12.02102,-9.1927 -22.80221,-22.0973 -32.34828,-38.7145 -20.15274,-36.0628 -31.29305,-82.5526 -33.41458,-139.4749 l 3.70976,0 c 26.16323,-0.7072 45.79169,-7.777 58.87297,-21.2125 13.08162,-13.7886 19.62243,-35.005 19.62243,-63.6428 0,-35.7092 -15.02829,-54.2726 -45.08083,-55.6868 l -11.66592,0 z"
         style="font-style:normal;font-variant:normal;font-weight:normal;font-stretch:normal;font-size:medium;line-height:125%;font-family:'Sansita One';-inkscape-font-specification:'Sansita One';letter-spacing:0px;word-spacing:0px;opacity:1;fill:#ffffff;fill-opacity:1;stroke:none;stroke-width:1px;stroke-linecap:butt;stroke-linejoin:miter;stroke-opacity:1"
         inkscape:connector-curvature="0" />
    </g>
    <g
       id="g4188"
       inkscape:export-xdpi="90"
       inkscape:export-ydpi="90"
       transform="translate(-128.61282,1451.1813)">
      <rect
         y="3714.356"
         x="-530.89874"
         height="720"
         width="2320"
         id="rect4182"
         style="opacity:1;fill:#00b4ff;fill-opacity:1"
         inkscape:export-filename="/Users/michaelcruz/Test/Test/Cruzy-450x"
         inkscape:export-xdpi="90"
         inkscape:export-ydpi="90" />
      <path
         inkscape:connector-curvature="0"
         style="font-style:normal;font-variant:normal;font-weight:normal;font-stretch:normal;font-size:medium;line-height:125%;font-family:'Sansita One';-inkscape-font-specification:'Sansita One';letter-spacing:0px;word-spacing:0px;opacity:1;fill:#ffffff;fill-opacity:1;stroke:none;stroke-width:1px;stroke-linecap:butt;stroke-linejoin:miter;stroke-opacity:1"
         d="m 799.50969,3789.3262 -1.3925,0.279 c 0.49827,-0.091 1.00195,-0.1821 1.506,-0.2711 l -0.11242,0 z m -4.49513,0.9081 -53.89387,10.9194 -0.0387,0.3334 -58.79775,5.9703 -54.86246,283.5832 c -2.06082,11.333 -5.41338,21.3751 -10.04954,30.1327 -14.42376,27.3025 -31.67703,40.9542 -51.76755,40.9542 -18.02971,0 -27.04555,-14.9429 -27.04555,-44.8209 0,-6.6971 1.02711,-15.7046 3.08756,-27.0378 l 56.41417,-298.2716 -156.86215,15.4602 -0.23635,1.2409 c 12.71127,3.8208 23.68989,8.5727 32.8417,14.3094 27.39695,17.1743 41.09037,43.1406 41.09037,77.8976 0,34.3486 -8.99296,62.3625 -26.98468,84.0344 -17.58339,21.6724 -41.71302,35.9855 -72.38115,42.9371 6.95151,33.9391 18.40048,64.6058 34.34807,92.0028 14.72056,25.7611 30.67357,42.7265 47.84779,50.9046 -6.13361,17.1743 -15.5423,29.447 -28.21833,36.8072 -1.93643,1.2263 -3.96742,2.3195 -6.04644,3.3526 12.78799,3.9981 26.47289,6.046 41.09774,6.046 61.3018,0 104.31817,-15.9694 129.04484,-47.9081 4.12126,14.4237 13.39316,26.0137 27.81732,34.7714 14.42376,8.7572 33.73825,13.1367 57.95002,13.1367 22.67244,0 44.46425,-7.454 65.40405,-22.1795 -8.16733,-0.9621 -16.7589,-1.4983 -25.88785,-1.4983 -14.42378,0 -28.84561,2.5746 -43.26978,7.7259 -7.72677,-4.636 -14.16766,-11.5902 -19.31911,-20.8626 -4.63616,-9.2726 -6.95422,-21.1198 -6.95422,-35.5437 0,-30.393 15.45628,-57.1829 46.36465,-80.3644 L 931.9718,3922.8659 c -36.57434,-10.3031 -71.60236,-15.4602 -105.08645,-15.4602 -32.96877,0 -55.37197,11.3333 -67.22,33.9997 -17.51479,-20.6055 -26.27375,-47.1311 -26.27375,-79.5849 0,-21.6357 7.72448,-39.4101 23.17885,-53.319 9.68263,-8.7457 22.50895,-14.8242 38.44143,-18.2675 z m -644.87513,1.7632 c -8.01775,0 -15.80033,0.2791 -23.45818,0.7188 l -0.42385,-0.038 0.0813,0.062 c -69.917916,4.0788 -124.8663767,26.4573 -164.73953,67.2578 -45.84734,46.3625 -68.77133,109.9847 -68.77133,190.8615 0,110.7549 52.2888,166.1318 156.861916,166.1318 30.637908,0 57.919274,-3.3564 81.900374,-10.0115 l -11.69889,0 17.48806,-94.1745 c -11.66554,4.5386 -23.89445,6.8256 -36.69374,6.8256 -21.635796,0 -37.348876,-5.6705 -47.136486,-17.0037 -9.787649,-11.8484 -14.68052,-30.6497 -14.68052,-56.4065 0,-46.8772 10.820237,-93.4957 32.45604,-139.858 9.78765,-20.0906 20.35108,-36.5739 31.684116,-49.4522 11.84809,-12.8787 22.91736,-19.3192 33.22027,-19.3192 14.93908,0 22.41442,10.8202 22.41442,32.4559 0,4.6363 -1.03447,15.4489 -3.0953,32.4485 -1.5451,16.4844 -5.1468,31.4273 -10.81355,44.821 5.78802,2.8937 13.31683,4.5664 22.42177,5.1383 l 27.56782,-148.4546 c 8.97436,-0.9973 18.47565,-1.8652 28.35431,-2.6413 l -5.75857,0.1977 -0.0969,0 c -17.96734,-6.3553 -40.3093,-9.5497 -67.08401,-9.5497 z m 978.01657,2.5348 -75.2641,7.4157 c 10.5521,11.4366 15.8535,24.6926 15.8535,39.7812 0,26.7872 -16.4831,54.0905 -49.4518,81.9083 L 823.80048,4069.678 c 40.18065,11.848 70.57255,17.7681 91.178,17.7681 43.27169,0 74.17689,-10.2994 92.72192,-30.9048 14.4238,16.4845 21.6423,39.1516 21.6423,67.9997 0,11.951 -1.6718,22.8325 -4.9717,32.6753 7.3793,0.8183 15.1564,1.2639 23.4206,1.2639 48.9385,0 86.8052,-13.9084 113.5924,-41.7262 -5.1514,24.7268 -10.5578,48.6777 -16.2243,71.8588 -19.5752,78.3013 -46.3649,117.4514 -80.3643,117.4514 -20.6055,0 -30.9123,-11.3332 -30.9123,-33.9993 0,-16.9996 5.9272,-30.6516 17.7756,-40.9544 -4.6365,-7.2119 -11.8473,-13.6452 -21.6349,-19.3114 -11.5811,-6.5144 -24.4624,-10.6923 -38.58553,-12.63 -17.5059,11.0182 -40.14856,16.5497 -67.9616,16.5497 -3.71172,0 -7.51332,-0.1133 -11.3587,-0.2788 -0.10455,0.078 -0.2131,0.1422 -0.31769,0.2209 -15.96929,12.3633 -23.95802,29.1031 -23.95802,50.2239 0,28.3325 15.45633,50.9995 46.36466,67.9991 30.90835,16.9994 73.40398,25.5018 127.49358,25.5018 33.4837,0 63.1053,-4.1227 88.8622,-12.3648 26.2722,-7.7271 49.4529,-21.6356 69.543,-41.7262 39.1508,-39.1504 68.2586,-108.1794 87.3187,-207.0857 l 57.9503,-303.6743 -152.2231,15.452 -42.4977,214.0403 c -4.6365,23.1816 -11.8471,41.4693 -21.6348,54.8628 -9.2723,13.3935 -19.5718,20.0909 -30.9049,20.0909 -10.8178,0 -19.3198,-2.0608 -25.5015,-6.1822 -3.6059,-3.0907 -6.6943,-6.9491 -9.27,-11.5854 -2.5757,-5.1511 -3.8667,-11.3356 -3.8667,-18.5474 0,-7.7273 0.7703,-15.1948 2.3154,-22.4067 1.5455,-7.2122 2.8365,-14.1666 3.8671,-20.863 l 42.4975,-224.8613 z m -781.68352,2.6106 -3.17085,0.1041 0.4692,0 c 1.43743,0 2.81941,0.038 4.23787,0.038 l -1.53622,-0.1424 z m 685.60942,6.8561 -21.8162,2.1493 c 0.6912,0 1.382,0.038 2.0732,0.038 7.0457,0 13.623,-0.7325 19.743,-2.1863 z m -701.80342,31.2758 c -3.67996,0 -6.54431,0.213 -8.58886,0.6202 l -70.53459,371.0839 -1.12746,0 159.10934,10.8895 c -11.66015,-2.1196 -22.421,-6.7389 -32.24387,-13.9615 -13.90305,-10.632 -26.37215,-25.5569 -37.41277,-44.7757 -23.30787,-41.7089 -36.19232,-95.4771 -38.646,-161.3113 l 4.29056,0 c 30.25938,-0.8179 52.96089,-8.9945 68.09019,-24.5335 15.12969,-15.9474 22.69454,-40.4854 22.69454,-73.6068 0,-41.2999 -17.38113,-62.7696 -52.13873,-64.4052 l -13.49235,0 z"
         id="path4184" />
    </g>
    <g
       id="g4160"
       inkscape:export-xdpi="90"
       inkscape:export-ydpi="90">
      <rect
         y="3908.0405"
         x="-511.54184"
         height="1080"
         width="1920"
         id="rect4154"
         style="opacity:1;fill:#00b4ff;fill-opacity:1"
         inkscape:export-filename="/Users/michaelcruz/Test/Test/Cruzy-450x"
         inkscape:export-xdpi="90"
         inkscape:export-ydpi="90" />
      <path
         inkscape:connector-curvature="0"
         style="font-style:normal;font-variant:normal;font-weight:normal;font-stretch:normal;font-size:medium;line-height:125%;font-family:'Sansita One';-inkscape-font-specification:'Sansita One';letter-spacing:0px;word-spacing:0px;opacity:1;fill:#ffffff;fill-opacity:1;stroke:none;stroke-width:1px;stroke-linecap:butt;stroke-linejoin:miter;stroke-opacity:1"
         d="m 614.40319,4170.4764 -1.35603,0.2717 c 0.48523,-0.089 0.97571,-0.1773 1.46656,-0.264 l -0.10947,0 z m -4.37739,0.8843 -52.48226,10.6334 -0.0377,0.3247 -57.25771,5.8139 -53.42549,276.1555 c -2.00684,11.0362 -5.27158,20.8153 -9.78632,29.3435 -14.04596,26.5873 -30.84734,39.8815 -50.41164,39.8815 -17.55747,0 -26.33716,-14.5515 -26.33716,-43.647 0,-6.5216 1.00021,-15.2932 3.00669,-26.3295 l 54.93655,-290.4593 -152.75357,15.0553 -0.23015,1.2084 c 12.37833,3.7207 23.06939,8.3482 31.9815,13.9346 26.67935,16.7245 40.01412,42.0107 40.01412,75.8573 0,33.4489 -8.75742,60.7291 -26.2779,81.8333 -17.12283,21.1048 -40.62046,35.043 -70.48532,41.8125 6.76944,33.0502 17.91854,62.9136 33.44842,89.593 14.335,25.0864 29.87015,41.6074 46.59455,49.5714 -5.97296,16.7244 -15.13522,28.6757 -27.47923,35.8431 -1.88571,1.1942 -3.86351,2.2587 -5.88808,3.2647 12.45305,3.8934 25.77952,5.8877 40.0213,5.8877 59.69616,0 101.58584,-15.5512 125.66486,-46.6533 4.01331,14.0459 13.04237,25.3324 27.08872,33.8607 14.04597,8.5278 32.85457,12.7926 56.43217,12.7926 22.07861,0 43.29964,-7.2588 63.69097,-21.5986 -7.9534,-0.9369 -16.31994,-1.459 -25.20979,-1.459 -14.04598,0 -28.09007,2.5071 -42.13644,7.5235 -7.52439,-4.5146 -13.79658,-11.2866 -18.8131,-20.3161 -4.51472,-9.0298 -6.77207,-20.5667 -6.77207,-34.6127 0,-29.597 15.05145,-55.6852 45.15025,-78.2596 L 743.3958,4300.5184 c -35.61637,-10.0333 -69.72693,-15.0553 -102.334,-15.0553 -32.10524,0 -53.92165,11.0365 -65.45935,33.1092 -17.05604,-20.0658 -25.58558,-45.8966 -25.58558,-77.5004 0,-21.069 7.52215,-38.3778 22.57174,-51.9224 9.42902,-8.5166 21.91939,-14.436 37.43456,-17.7891 z m -627.984364,1.717 c -7.807752,0 -15.386492,0.2718 -22.843756,0.7 l -0.412754,-0.037 0.07914,0.061 c -68.086606,3.972 -121.595836,25.7643 -160.424616,65.4962 -44.64649,45.1481 -66.97005,107.1039 -66.97005,185.8624 0,107.8539 50.91923,161.7804 152.75333,161.7804 29.835437,0 56.402245,-3.2686 79.755216,-9.7493 l -11.392464,0 17.030004,-91.7079 c -11.35999,4.4197 -23.268594,6.6468 -35.732641,6.6468 -21.06911,0 -36.370635,-5.522 -45.901875,-16.5583 -9.5313,-11.538 -14.29601,-29.8469 -14.29601,-54.9291 0,-45.6493 10.53683,-91.0468 31.605942,-136.1947 9.531286,-19.5644 19.818036,-35.616 30.854237,-48.157 11.537762,-12.5413 22.317105,-18.8132 32.350162,-18.8132 14.547785,0 21.8273289,10.5368 21.8273289,31.6058 0,4.5149 -1.0073679,15.0442 -3.0142199,31.5986 -1.504638,16.0527 -5.011994,30.6042 -10.530325,43.647 5.63642,2.818 12.968031,4.4469 21.8344979,5.0038 L 25.458334,4184.7669 c 8.7393,-0.9712 17.99173,-1.8163 27.61164,-2.5721 l -5.60774,0.1925 -0.0944,0 c -17.49672,-6.1888 -39.2534991,-9.2996 -65.326921,-9.2996 z m 952.400084,2.4685 -73.29278,7.2214 c 10.27567,11.1371 15.4382,24.0458 15.4382,38.7392 0,26.0856 -16.05129,52.6738 -48.15654,79.763 l -190.37264,142.2153 c 39.12823,11.5378 68.72409,17.3028 88.78984,17.3028 42.1383,0 72.23407,-10.0297 90.29334,-30.0954 14.04599,16.0527 21.07539,38.1261 21.07539,66.2186 0,11.638 -1.62805,22.2345 -4.84147,31.8195 7.186,0.7969 14.75944,1.2308 22.80717,1.2308 47.65663,0 84.53159,-13.5441 110.61719,-40.6333 -5.0165,24.0791 -10.2813,47.4027 -15.7994,69.9767 -19.0624,76.2504 -45.15054,114.375 -78.25939,114.375 -20.06575,0 -30.10258,-11.0363 -30.10258,-33.1088 0,-16.5543 5.77188,-29.8487 17.30997,-39.8817 -4.51509,-7.0229 -11.53695,-13.2877 -21.06822,-18.8055 -11.27775,-6.3438 -23.8217,-10.4123 -37.5749,-12.2992 -17.04737,10.7296 -39.09694,16.1162 -66.1815,16.1162 -3.61449,0 -7.31653,-0.1104 -11.06119,-0.2715 -0.10181,0.075 -0.20751,0.1385 -0.30936,0.2151 -15.55103,12.0395 -23.33051,28.3408 -23.33051,48.9084 0,27.5904 15.05149,49.6637 45.15026,66.218 30.09881,16.5543 71.48138,24.8339 124.15418,24.8339 32.60667,0 61.45244,-4.0147 86.53474,-12.0409 25.584,-7.5247 48.15758,-21.0689 67.72158,-40.6333 38.1253,-38.125 66.4707,-105.3459 85.0316,-201.6617 l 56.4324,-295.7204 -148.2361,15.0473 -41.38448,208.4342 c -4.5151,22.5743 -11.5368,40.3831 -21.0682,53.4257 -9.0294,13.0428 -19.0591,19.5648 -30.0954,19.5648 -10.53443,0 -18.81381,-2.0069 -24.83357,-6.0204 -3.51149,-3.0097 -6.51893,-6.767 -9.0272,-11.2819 -2.50826,-5.0162 -3.76542,-11.0387 -3.76542,-18.0616 0,-7.5249 0.75008,-14.7968 2.25473,-21.8198 1.50503,-7.0233 2.76218,-13.7955 3.7658,-20.3165 l 41.38446,-218.9718 z m -761.20943,2.5422 -3.0878,0.1014 0.4569,0 c 1.39978,0 2.74557,0.037 4.12687,0.037 l -1.49597,-0.1386 z m 667.65172,6.6765 -21.2448,2.093 c 0.6731,0 1.34582,0.037 2.01891,0.037 6.86112,0 13.26611,-0.7134 19.22588,-2.1291 z m -683.42157,30.4566 c -3.58357,0 -6.3729,0.2074 -8.3639,0.604 l -68.687133,361.3643 -1.09794,0 154.941913,10.6043 c -11.35474,-2.0641 -21.83374,-6.5624 -31.39933,-13.5959 -13.53889,-10.3534 -25.6814,-24.8874 -36.43283,-43.6029 -22.69739,-40.6163 -35.24437,-92.9763 -37.63378,-157.0861 l 4.17819,0 c 29.46681,-0.7965 51.57372,-8.759 66.30674,-23.891 14.73342,-15.5296 22.10012,-39.425 22.10012,-71.6788 0,-40.2181 -16.92588,-61.1255 -50.7731,-62.7183 l -13.13895,0 z"
         id="path4156" />
    </g>
  </g>
</svg>
